<svg xmlns="http://www.w3.org/2000/svg" width="512" height="512" viewBox="0 0 256 256" fill="none">
  <style>
    .bg { fill: #111111; }
    .mark { fill: #ffffff; }
    @media (prefers-color-scheme: dark) { .bg { fill: #f5f5f5; } .mark { fill: #111111; } }
  </style>
  <rect class="bg" x="24" y="24" width="208" height="208" rx="48" />
  <path class="mark" d="M224,104v96a16,16,0,0,1-16,16H48a16,16,0,0,1-16-16V104A16,16,0,0,1,48,88H208A16,16,0,0,1,224,104ZM56,72H200a8,8,0,0,0,0-16H56a8,8,0,0,0,0,16ZM72,40H184a8,8,0,0,0,0-16H72a8,8,0,0,0,0,16Z" transform="translate(0 8)" />
</svg>
